<mxfile host="app.diagrams.net" modified="2020-10-08T05:08:27.729Z" agent="5.0 (Macintosh; Intel Mac OS X 10_15_6) AppleWebKit/537.36 (KHTML, like Gecko) Chrome/85.0.4183.121 Safari/537.36" etag="FkiiLjiaxaevtU-S6qGk" version="13.7.8" type="github" pages="3">
  <diagram id="29xJlA8Se5fbEzLuSr_1" name="domain model">
    <mxGraphModel dx="786" dy="738" grid="1" gridSize="10" guides="1" tooltips="1" connect="1" arrows="1" fold="1" page="1" pageScale="1" pageWidth="850" pageHeight="1100" math="0" shadow="0">
      <root>
        <mxCell id="0" />
        <mxCell id="1" parent="0" />
        <mxCell id="CPHN7FILl5JGV7DydlDY-1" value="users" style="rounded=0;whiteSpace=wrap;html=1;" parent="1" vertex="1">
          <mxGeometry x="40" y="260" width="120" height="60" as="geometry" />
        </mxCell>
        <mxCell id="fkSMhrdSkVYTth2vi6ym-20" style="edgeStyle=orthogonalEdgeStyle;rounded=0;orthogonalLoop=1;jettySize=auto;html=1;exitX=0.5;exitY=1;exitDx=0;exitDy=0;entryX=0.5;entryY=0;entryDx=0;entryDy=0;endArrow=none;endFill=0;startArrow=diamondThin;startFill=0;" parent="1" source="CPHN7FILl5JGV7DydlDY-2" target="CPHN7FILl5JGV7DydlDY-4" edge="1">
          <mxGeometry relative="1" as="geometry" />
        </mxCell>
        <mxCell id="fkSMhrdSkVYTth2vi6ym-21" style="edgeStyle=orthogonalEdgeStyle;rounded=0;orthogonalLoop=1;jettySize=auto;html=1;exitX=0;exitY=0.5;exitDx=0;exitDy=0;entryX=1;entryY=0.5;entryDx=0;entryDy=0;endArrow=none;endFill=0;" parent="1" source="CPHN7FILl5JGV7DydlDY-2" target="CPHN7FILl5JGV7DydlDY-1" edge="1">
          <mxGeometry relative="1" as="geometry" />
        </mxCell>
        <mxCell id="UySvFB3RAScjOvA2F3Ek-2" style="edgeStyle=orthogonalEdgeStyle;rounded=0;orthogonalLoop=1;jettySize=auto;html=1;exitX=1;exitY=0.5;exitDx=0;exitDy=0;entryX=0;entryY=0.5;entryDx=0;entryDy=0;endArrow=none;endFill=0;startArrow=diamond;startFill=1;" parent="1" source="CPHN7FILl5JGV7DydlDY-2" target="UySvFB3RAScjOvA2F3Ek-1" edge="1">
          <mxGeometry relative="1" as="geometry" />
        </mxCell>
        <mxCell id="CPHN7FILl5JGV7DydlDY-2" value="simulation" style="rounded=0;whiteSpace=wrap;html=1;" parent="1" vertex="1">
          <mxGeometry x="260" y="260" width="120" height="60" as="geometry" />
        </mxCell>
        <mxCell id="fkSMhrdSkVYTth2vi6ym-22" style="edgeStyle=orthogonalEdgeStyle;rounded=0;orthogonalLoop=1;jettySize=auto;html=1;exitX=0.5;exitY=1;exitDx=0;exitDy=0;entryX=0.5;entryY=0;entryDx=0;entryDy=0;endArrow=diamondThin;endFill=1;startArrow=none;startFill=0;" parent="1" source="CPHN7FILl5JGV7DydlDY-3" target="CPHN7FILl5JGV7DydlDY-2" edge="1">
          <mxGeometry relative="1" as="geometry" />
        </mxCell>
        <mxCell id="CPHN7FILl5JGV7DydlDY-3" value="notifications" style="rounded=0;whiteSpace=wrap;html=1;" parent="1" vertex="1">
          <mxGeometry x="260" y="130" width="120" height="60" as="geometry" />
        </mxCell>
        <mxCell id="CPHN7FILl5JGV7DydlDY-4" value="modules" style="rounded=0;whiteSpace=wrap;html=1;" parent="1" vertex="1">
          <mxGeometry x="260" y="390" width="120" height="60" as="geometry" />
        </mxCell>
        <mxCell id="fkSMhrdSkVYTth2vi6ym-14" style="edgeStyle=orthogonalEdgeStyle;rounded=0;orthogonalLoop=1;jettySize=auto;html=1;exitX=0.5;exitY=0;exitDx=0;exitDy=0;endArrow=block;endFill=0;" parent="1" source="fkSMhrdSkVYTth2vi6ym-1" target="CPHN7FILl5JGV7DydlDY-4" edge="1">
          <mxGeometry relative="1" as="geometry" />
        </mxCell>
        <mxCell id="fkSMhrdSkVYTth2vi6ym-1" value="Smart Home Dashboard" style="rounded=0;whiteSpace=wrap;html=1;" parent="1" vertex="1">
          <mxGeometry x="30" y="540" width="120" height="50" as="geometry" />
        </mxCell>
        <mxCell id="fkSMhrdSkVYTth2vi6ym-16" style="edgeStyle=orthogonalEdgeStyle;rounded=0;orthogonalLoop=1;jettySize=auto;html=1;exitX=0.5;exitY=0;exitDx=0;exitDy=0;endArrow=blockThin;endFill=0;" parent="1" source="fkSMhrdSkVYTth2vi6ym-2" edge="1">
          <mxGeometry relative="1" as="geometry">
            <mxPoint x="320" y="450" as="targetPoint" />
          </mxGeometry>
        </mxCell>
        <mxCell id="fkSMhrdSkVYTth2vi6ym-2" value="Smart Home Core Functionality (SHC)" style="rounded=0;whiteSpace=wrap;html=1;" parent="1" vertex="1">
          <mxGeometry x="170" y="540" width="120" height="50" as="geometry" />
        </mxCell>
        <mxCell id="fkSMhrdSkVYTth2vi6ym-3" value="Smart Home Heater (SHH)" style="whiteSpace=wrap;html=1;" parent="1" vertex="1">
          <mxGeometry x="305" y="540" width="120" height="50" as="geometry" />
        </mxCell>
        <mxCell id="fkSMhrdSkVYTth2vi6ym-18" style="edgeStyle=orthogonalEdgeStyle;rounded=0;orthogonalLoop=1;jettySize=auto;html=1;exitX=0.5;exitY=0;exitDx=0;exitDy=0;entryX=0.5;entryY=1;entryDx=0;entryDy=0;endArrow=blockThin;endFill=0;" parent="1" source="fkSMhrdSkVYTth2vi6ym-4" target="CPHN7FILl5JGV7DydlDY-4" edge="1">
          <mxGeometry relative="1" as="geometry" />
        </mxCell>
        <mxCell id="fkSMhrdSkVYTth2vi6ym-4" value="Smart Home Security (SHP)" style="whiteSpace=wrap;html=1;" parent="1" vertex="1">
          <mxGeometry x="430" y="540" width="120" height="50" as="geometry" />
        </mxCell>
        <mxCell id="fkSMhrdSkVYTth2vi6ym-24" style="edgeStyle=orthogonalEdgeStyle;rounded=0;orthogonalLoop=1;jettySize=auto;html=1;exitX=0.5;exitY=1;exitDx=0;exitDy=0;entryX=0.5;entryY=0;entryDx=0;entryDy=0;endArrow=none;endFill=0;" parent="1" source="fkSMhrdSkVYTth2vi6ym-11" target="fkSMhrdSkVYTth2vi6ym-23" edge="1">
          <mxGeometry relative="1" as="geometry" />
        </mxCell>
        <mxCell id="fkSMhrdSkVYTth2vi6ym-11" value="rooms" style="whiteSpace=wrap;html=1;" parent="1" vertex="1">
          <mxGeometry x="560" y="260" width="120" height="60" as="geometry" />
        </mxCell>
        <mxCell id="fkSMhrdSkVYTth2vi6ym-19" style="edgeStyle=orthogonalEdgeStyle;rounded=0;orthogonalLoop=1;jettySize=auto;html=1;exitX=0.5;exitY=0;exitDx=0;exitDy=0;endArrow=blockThin;endFill=0;" parent="1" source="fkSMhrdSkVYTth2vi6ym-3" edge="1">
          <mxGeometry relative="1" as="geometry">
            <mxPoint x="320" y="450" as="targetPoint" />
          </mxGeometry>
        </mxCell>
        <mxCell id="fkSMhrdSkVYTth2vi6ym-23" value="arbitrary objects" style="whiteSpace=wrap;html=1;" parent="1" vertex="1">
          <mxGeometry x="560" y="390" width="120" height="60" as="geometry" />
        </mxCell>
        <mxCell id="UySvFB3RAScjOvA2F3Ek-3" style="edgeStyle=orthogonalEdgeStyle;rounded=0;orthogonalLoop=1;jettySize=auto;html=1;exitX=0.5;exitY=1;exitDx=0;exitDy=0;entryX=0.5;entryY=0;entryDx=0;entryDy=0;endArrow=none;endFill=0;startArrow=diamond;startFill=1;" parent="1" source="UySvFB3RAScjOvA2F3Ek-1" target="fkSMhrdSkVYTth2vi6ym-11" edge="1">
          <mxGeometry relative="1" as="geometry" />
        </mxCell>
        <mxCell id="UySvFB3RAScjOvA2F3Ek-1" value="home" style="whiteSpace=wrap;html=1;" parent="1" vertex="1">
          <mxGeometry x="560" y="130" width="120" height="60" as="geometry" />
        </mxCell>
        <mxCell id="IYt1yw46BEGq4BvRzfWG-2" style="edgeStyle=orthogonalEdgeStyle;rounded=0;orthogonalLoop=1;jettySize=auto;html=1;exitX=0.5;exitY=0;exitDx=0;exitDy=0;endArrow=blockThin;endFill=0;" edge="1" parent="1" source="IYt1yw46BEGq4BvRzfWG-1">
          <mxGeometry relative="1" as="geometry">
            <mxPoint x="320" y="450" as="targetPoint" />
          </mxGeometry>
        </mxCell>
        <mxCell id="IYt1yw46BEGq4BvRzfWG-1" value="extra modules" style="whiteSpace=wrap;html=1;" vertex="1" parent="1">
          <mxGeometry x="560" y="540" width="120" height="60" as="geometry" />
        </mxCell>
        <mxCell id="gQwUq3gMzSBmTL0Rb7Kc-1" value="1*" style="text;html=1;align=center;verticalAlign=middle;resizable=0;points=[];autosize=1;" vertex="1" parent="1">
          <mxGeometry x="160" y="260" width="30" height="20" as="geometry" />
        </mxCell>
        <mxCell id="gQwUq3gMzSBmTL0Rb7Kc-2" value="1" style="text;html=1;align=center;verticalAlign=middle;resizable=0;points=[];autosize=1;" vertex="1" parent="1">
          <mxGeometry x="240" y="260" width="20" height="20" as="geometry" />
        </mxCell>
        <mxCell id="gQwUq3gMzSBmTL0Rb7Kc-3" value="*" style="text;html=1;align=center;verticalAlign=middle;resizable=0;points=[];autosize=1;" vertex="1" parent="1">
          <mxGeometry x="320" y="190" width="20" height="20" as="geometry" />
        </mxCell>
        <mxCell id="gQwUq3gMzSBmTL0Rb7Kc-4" value="1" style="text;html=1;align=center;verticalAlign=middle;resizable=0;points=[];autosize=1;" vertex="1" parent="1">
          <mxGeometry x="320" y="320" width="20" height="20" as="geometry" />
        </mxCell>
        <mxCell id="gQwUq3gMzSBmTL0Rb7Kc-6" value="1" style="text;html=1;align=center;verticalAlign=middle;resizable=0;points=[];autosize=1;" vertex="1" parent="1">
          <mxGeometry x="320" y="240" width="20" height="20" as="geometry" />
        </mxCell>
        <mxCell id="gQwUq3gMzSBmTL0Rb7Kc-7" value="1" style="text;html=1;align=center;verticalAlign=middle;resizable=0;points=[];autosize=1;" vertex="1" parent="1">
          <mxGeometry x="380" y="260" width="20" height="20" as="geometry" />
        </mxCell>
        <mxCell id="gQwUq3gMzSBmTL0Rb7Kc-8" value="1" style="text;html=1;align=center;verticalAlign=middle;resizable=0;points=[];autosize=1;" vertex="1" parent="1">
          <mxGeometry x="540" y="130" width="20" height="20" as="geometry" />
        </mxCell>
        <mxCell id="gQwUq3gMzSBmTL0Rb7Kc-9" value="1" style="text;html=1;align=center;verticalAlign=middle;resizable=0;points=[];autosize=1;" vertex="1" parent="1">
          <mxGeometry x="630" y="200" width="20" height="20" as="geometry" />
        </mxCell>
        <mxCell id="gQwUq3gMzSBmTL0Rb7Kc-10" value="*" style="text;html=1;align=center;verticalAlign=middle;resizable=0;points=[];autosize=1;" vertex="1" parent="1">
          <mxGeometry x="630" y="240" width="20" height="20" as="geometry" />
        </mxCell>
        <mxCell id="gQwUq3gMzSBmTL0Rb7Kc-11" value="*" style="text;html=1;align=center;verticalAlign=middle;resizable=0;points=[];autosize=1;" vertex="1" parent="1">
          <mxGeometry x="620" y="320" width="20" height="20" as="geometry" />
        </mxCell>
        <mxCell id="gQwUq3gMzSBmTL0Rb7Kc-12" value="*" style="text;html=1;align=center;verticalAlign=middle;resizable=0;points=[];autosize=1;" vertex="1" parent="1">
          <mxGeometry x="620" y="370" width="20" height="20" as="geometry" />
        </mxCell>
      </root>
    </mxGraphModel>
  </diagram>
  <diagram id="61EIeKFrq4l5trr3OWub" name="class">
    <mxGraphModel dx="1636" dy="738" grid="1" gridSize="10" guides="1" tooltips="1" connect="1" arrows="1" fold="1" page="1" pageScale="1" pageWidth="850" pageHeight="1100" math="0" shadow="0">
      <root>
        <mxCell id="k98FI3-CN0EbQ0Xw41iG-0" />
        <mxCell id="k98FI3-CN0EbQ0Xw41iG-1" parent="k98FI3-CN0EbQ0Xw41iG-0" />
        <mxCell id="Hh1ZqOh16C1T5onKGEZO-32" value="Extends" style="endArrow=block;endSize=16;endFill=0;html=1;exitX=0.5;exitY=0;exitDx=0;exitDy=0;entryX=0;entryY=0.5;entryDx=0;entryDy=0;" parent="k98FI3-CN0EbQ0Xw41iG-1" source="Hh1ZqOh16C1T5onKGEZO-10" target="Hh1ZqOh16C1T5onKGEZO-7" edge="1">
          <mxGeometry width="160" relative="1" as="geometry">
            <mxPoint x="430" y="650" as="sourcePoint" />
            <mxPoint x="420" y="750" as="targetPoint" />
          </mxGeometry>
        </mxCell>
        <mxCell id="Hh1ZqOh16C1T5onKGEZO-33" value="Extends" style="endArrow=block;endSize=16;endFill=0;html=1;exitX=0.5;exitY=0;exitDx=0;exitDy=0;entryX=1;entryY=0.5;entryDx=0;entryDy=0;" parent="k98FI3-CN0EbQ0Xw41iG-1" source="Hh1ZqOh16C1T5onKGEZO-18" target="Hh1ZqOh16C1T5onKGEZO-7" edge="1">
          <mxGeometry width="160" relative="1" as="geometry">
            <mxPoint x="350" y="840" as="sourcePoint" />
            <mxPoint x="455" y="719" as="targetPoint" />
          </mxGeometry>
        </mxCell>
        <mxCell id="Hh1ZqOh16C1T5onKGEZO-34" value="Extends" style="endArrow=block;endSize=16;endFill=0;html=1;exitX=0.5;exitY=0;exitDx=0;exitDy=0;entryX=0.5;entryY=1;entryDx=0;entryDy=0;entryPerimeter=0;" parent="k98FI3-CN0EbQ0Xw41iG-1" source="Hh1ZqOh16C1T5onKGEZO-14" target="Hh1ZqOh16C1T5onKGEZO-9" edge="1">
          <mxGeometry width="160" relative="1" as="geometry">
            <mxPoint x="360" y="850" as="sourcePoint" />
            <mxPoint x="465" y="729" as="targetPoint" />
          </mxGeometry>
        </mxCell>
        <mxCell id="WAo9bf8TWP8gmRhbdrpz-10" value="House" style="swimlane;fontStyle=1;align=center;verticalAlign=top;childLayout=stackLayout;horizontal=1;startSize=26;horizontalStack=0;resizeParent=1;resizeParentMax=0;resizeLast=0;collapsible=1;marginBottom=0;" parent="k98FI3-CN0EbQ0Xw41iG-1" vertex="1">
          <mxGeometry x="50" y="40" width="160" height="130" as="geometry" />
        </mxCell>
        <mxCell id="WAo9bf8TWP8gmRhbdrpz-12" value="" style="line;strokeWidth=1;fillColor=none;align=left;verticalAlign=middle;spacingTop=-1;spacingLeft=3;spacingRight=3;rotatable=0;labelPosition=right;points=[];portConstraint=eastwest;" parent="WAo9bf8TWP8gmRhbdrpz-10" vertex="1">
          <mxGeometry y="26" width="160" height="84" as="geometry" />
        </mxCell>
        <mxCell id="WAo9bf8TWP8gmRhbdrpz-25" value="+ loadHouseFile(file: string)" style="text;html=1;align=center;verticalAlign=middle;resizable=0;points=[];autosize=1;" parent="WAo9bf8TWP8gmRhbdrpz-10" vertex="1">
          <mxGeometry y="110" width="160" height="20" as="geometry" />
        </mxCell>
        <mxCell id="WAo9bf8TWP8gmRhbdrpz-15" style="edgeStyle=orthogonalEdgeStyle;rounded=0;orthogonalLoop=1;jettySize=auto;html=1;startArrow=none;startFill=0;endArrow=diamond;endFill=1;strokeColor=#000000;entryX=0.5;entryY=1;entryDx=0;entryDy=0;" parent="k98FI3-CN0EbQ0Xw41iG-1" source="Hh1ZqOh16C1T5onKGEZO-0" target="WAo9bf8TWP8gmRhbdrpz-10" edge="1">
          <mxGeometry relative="1" as="geometry">
            <mxPoint x="128" y="140" as="targetPoint" />
          </mxGeometry>
        </mxCell>
        <mxCell id="WAo9bf8TWP8gmRhbdrpz-17" style="edgeStyle=orthogonalEdgeStyle;rounded=0;orthogonalLoop=1;jettySize=auto;html=1;exitX=0.5;exitY=1;exitDx=0;exitDy=0;startArrow=none;startFill=0;endArrow=diamond;endFill=1;strokeColor=#000000;" parent="k98FI3-CN0EbQ0Xw41iG-1" source="Hh1ZqOh16C1T5onKGEZO-3" target="Hh1ZqOh16C1T5onKGEZO-1" edge="1">
          <mxGeometry relative="1" as="geometry">
            <Array as="points">
              <mxPoint x="698" y="400" />
              <mxPoint x="120" y="400" />
            </Array>
          </mxGeometry>
        </mxCell>
        <mxCell id="Hh1ZqOh16C1T5onKGEZO-3" value="User" style="swimlane;fontStyle=1;align=center;verticalAlign=top;childLayout=stackLayout;horizontal=1;startSize=26;horizontalStack=0;resizeParent=1;resizeParentMax=0;resizeLast=0;collapsible=1;marginBottom=0;" parent="k98FI3-CN0EbQ0Xw41iG-1" vertex="1">
          <mxGeometry x="615" y="40" width="185" height="244" as="geometry" />
        </mxCell>
        <mxCell id="Hh1ZqOh16C1T5onKGEZO-4" value="- type: string&#xa;- userId: int&#xa;- location: Room&#xa;&#xa;" style="text;strokeColor=none;fillColor=none;align=left;verticalAlign=top;spacingLeft=4;spacingRight=4;overflow=hidden;rotatable=0;points=[[0,0.5],[1,0.5]];portConstraint=eastwest;" parent="Hh1ZqOh16C1T5onKGEZO-3" vertex="1">
          <mxGeometry y="26" width="185" height="64" as="geometry" />
        </mxCell>
        <mxCell id="Hh1ZqOh16C1T5onKGEZO-5" value="" style="line;strokeWidth=1;fillColor=none;align=left;verticalAlign=middle;spacingTop=-1;spacingLeft=3;spacingRight=3;rotatable=0;labelPosition=right;points=[];portConstraint=eastwest;" parent="Hh1ZqOh16C1T5onKGEZO-3" vertex="1">
          <mxGeometry y="90" width="185" height="90" as="geometry" />
        </mxCell>
        <mxCell id="WAo9bf8TWP8gmRhbdrpz-18" value="+ setType(type: string)&#xa;+ setId(id: string)&#xa;+ setLocation(location: Room)" style="text;strokeColor=none;fillColor=none;align=left;verticalAlign=top;spacingLeft=4;spacingRight=4;overflow=hidden;rotatable=0;points=[[0,0.5],[1,0.5]];portConstraint=eastwest;" parent="Hh1ZqOh16C1T5onKGEZO-3" vertex="1">
          <mxGeometry y="180" width="185" height="64" as="geometry" />
        </mxCell>
        <mxCell id="WAo9bf8TWP8gmRhbdrpz-9" style="rounded=0;orthogonalLoop=1;jettySize=auto;html=1;entryX=1.008;entryY=0.76;entryDx=0;entryDy=0;entryPerimeter=0;edgeStyle=orthogonalEdgeStyle;endArrow=diamond;endFill=1;startArrow=none;startFill=0;" parent="k98FI3-CN0EbQ0Xw41iG-1" source="Hh1ZqOh16C1T5onKGEZO-4" target="Hh1ZqOh16C1T5onKGEZO-23" edge="1">
          <mxGeometry relative="1" as="geometry" />
        </mxCell>
        <mxCell id="WAo9bf8TWP8gmRhbdrpz-14" style="edgeStyle=orthogonalEdgeStyle;rounded=0;orthogonalLoop=1;jettySize=auto;html=1;entryX=0.005;entryY=0.801;entryDx=0;entryDy=0;entryPerimeter=0;startArrow=none;startFill=0;endArrow=diamond;endFill=1;strokeColor=#000000;" parent="k98FI3-CN0EbQ0Xw41iG-1" target="Hh1ZqOh16C1T5onKGEZO-23" edge="1">
          <mxGeometry relative="1" as="geometry">
            <mxPoint x="210" y="79" as="sourcePoint" />
          </mxGeometry>
        </mxCell>
        <mxCell id="Hh1ZqOh16C1T5onKGEZO-22" value="Simulation" style="swimlane;fontStyle=1;align=center;verticalAlign=top;childLayout=stackLayout;horizontal=1;startSize=26;horizontalStack=0;resizeParent=1;resizeParentMax=0;resizeLast=0;collapsible=1;marginBottom=0;" parent="k98FI3-CN0EbQ0Xw41iG-1" vertex="1">
          <mxGeometry x="300" y="40" width="250" height="320" as="geometry" />
        </mxCell>
        <mxCell id="Hh1ZqOh16C1T5onKGEZO-23" value="- date: Date&#xa;- time: Time&#xa;- temperature: float&#xa;- loggedInUser: User&#xa;" style="text;strokeColor=none;fillColor=none;align=left;verticalAlign=top;spacingLeft=4;spacingRight=4;overflow=hidden;rotatable=0;points=[[0,0.5],[1,0.5]];portConstraint=eastwest;" parent="Hh1ZqOh16C1T5onKGEZO-22" vertex="1">
          <mxGeometry y="26" width="250" height="124" as="geometry" />
        </mxCell>
        <mxCell id="Hh1ZqOh16C1T5onKGEZO-24" value="" style="line;strokeWidth=1;fillColor=none;align=left;verticalAlign=middle;spacingTop=-1;spacingLeft=3;spacingRight=3;rotatable=0;labelPosition=right;points=[];portConstraint=eastwest;" parent="Hh1ZqOh16C1T5onKGEZO-22" vertex="1">
          <mxGeometry y="150" width="250" height="8" as="geometry" />
        </mxCell>
        <mxCell id="Hh1ZqOh16C1T5onKGEZO-25" value="+ addUser(user: User)&#xa;+ removeUser(user: User)&#xa;+ getUserById(userId: int): User&#xa;+ loginUser(user: User)&#xa;+ setDate(date: Date)&#xa;+ setTime(time: Time)" style="text;strokeColor=none;fillColor=none;align=left;verticalAlign=top;spacingLeft=4;spacingRight=4;overflow=hidden;rotatable=0;points=[[0,0.5],[1,0.5]];portConstraint=eastwest;" parent="Hh1ZqOh16C1T5onKGEZO-22" vertex="1">
          <mxGeometry y="158" width="250" height="162" as="geometry" />
        </mxCell>
        <mxCell id="Z85w9RJjv7gsrz5Ugrhh-0" value="ArbitraryObject" style="swimlane;fontStyle=1;align=center;verticalAlign=top;childLayout=stackLayout;horizontal=1;startSize=26;horizontalStack=0;resizeParent=1;resizeParentMax=0;resizeLast=0;collapsible=1;marginBottom=0;" parent="k98FI3-CN0EbQ0Xw41iG-1" vertex="1">
          <mxGeometry x="50" y="820" width="160" height="86" as="geometry" />
        </mxCell>
        <mxCell id="Z85w9RJjv7gsrz5Ugrhh-1" value="+ field: type" style="text;strokeColor=none;fillColor=none;align=left;verticalAlign=top;spacingLeft=4;spacingRight=4;overflow=hidden;rotatable=0;points=[[0,0.5],[1,0.5]];portConstraint=eastwest;" parent="Z85w9RJjv7gsrz5Ugrhh-0" vertex="1">
          <mxGeometry y="26" width="160" height="26" as="geometry" />
        </mxCell>
        <mxCell id="Z85w9RJjv7gsrz5Ugrhh-2" value="" style="line;strokeWidth=1;fillColor=none;align=left;verticalAlign=middle;spacingTop=-1;spacingLeft=3;spacingRight=3;rotatable=0;labelPosition=right;points=[];portConstraint=eastwest;" parent="Z85w9RJjv7gsrz5Ugrhh-0" vertex="1">
          <mxGeometry y="52" width="160" height="8" as="geometry" />
        </mxCell>
        <mxCell id="Z85w9RJjv7gsrz5Ugrhh-3" value="+ obstructWindow" style="text;strokeColor=none;fillColor=none;align=left;verticalAlign=top;spacingLeft=4;spacingRight=4;overflow=hidden;rotatable=0;points=[[0,0.5],[1,0.5]];portConstraint=eastwest;" parent="Z85w9RJjv7gsrz5Ugrhh-0" vertex="1">
          <mxGeometry y="60" width="160" height="26" as="geometry" />
        </mxCell>
        <mxCell id="Hh1ZqOh16C1T5onKGEZO-10" value="SHC" style="swimlane;fontStyle=1;align=center;verticalAlign=top;childLayout=stackLayout;horizontal=1;startSize=26;horizontalStack=0;resizeParent=1;resizeParentMax=0;resizeLast=0;collapsible=1;marginBottom=0;" parent="k98FI3-CN0EbQ0Xw41iG-1" vertex="1">
          <mxGeometry x="260" y="830" width="160" height="86" as="geometry" />
        </mxCell>
        <mxCell id="Hh1ZqOh16C1T5onKGEZO-11" value="+ field: type" style="text;strokeColor=none;fillColor=none;align=left;verticalAlign=top;spacingLeft=4;spacingRight=4;overflow=hidden;rotatable=0;points=[[0,0.5],[1,0.5]];portConstraint=eastwest;" parent="Hh1ZqOh16C1T5onKGEZO-10" vertex="1">
          <mxGeometry y="26" width="160" height="26" as="geometry" />
        </mxCell>
        <mxCell id="Hh1ZqOh16C1T5onKGEZO-12" value="" style="line;strokeWidth=1;fillColor=none;align=left;verticalAlign=middle;spacingTop=-1;spacingLeft=3;spacingRight=3;rotatable=0;labelPosition=right;points=[];portConstraint=eastwest;" parent="Hh1ZqOh16C1T5onKGEZO-10" vertex="1">
          <mxGeometry y="52" width="160" height="8" as="geometry" />
        </mxCell>
        <mxCell id="Hh1ZqOh16C1T5onKGEZO-13" value="+ method(type): type" style="text;strokeColor=none;fillColor=none;align=left;verticalAlign=top;spacingLeft=4;spacingRight=4;overflow=hidden;rotatable=0;points=[[0,0.5],[1,0.5]];portConstraint=eastwest;" parent="Hh1ZqOh16C1T5onKGEZO-10" vertex="1">
          <mxGeometry y="60" width="160" height="26" as="geometry" />
        </mxCell>
        <mxCell id="Hh1ZqOh16C1T5onKGEZO-18" value="SHH" style="swimlane;fontStyle=1;align=center;verticalAlign=top;childLayout=stackLayout;horizontal=1;startSize=26;horizontalStack=0;resizeParent=1;resizeParentMax=0;resizeLast=0;collapsible=1;marginBottom=0;" parent="k98FI3-CN0EbQ0Xw41iG-1" vertex="1">
          <mxGeometry x="630" y="830" width="160" height="86" as="geometry" />
        </mxCell>
        <mxCell id="Hh1ZqOh16C1T5onKGEZO-19" value="+ field: type" style="text;strokeColor=none;fillColor=none;align=left;verticalAlign=top;spacingLeft=4;spacingRight=4;overflow=hidden;rotatable=0;points=[[0,0.5],[1,0.5]];portConstraint=eastwest;" parent="Hh1ZqOh16C1T5onKGEZO-18" vertex="1">
          <mxGeometry y="26" width="160" height="26" as="geometry" />
        </mxCell>
        <mxCell id="Hh1ZqOh16C1T5onKGEZO-20" value="" style="line;strokeWidth=1;fillColor=none;align=left;verticalAlign=middle;spacingTop=-1;spacingLeft=3;spacingRight=3;rotatable=0;labelPosition=right;points=[];portConstraint=eastwest;" parent="Hh1ZqOh16C1T5onKGEZO-18" vertex="1">
          <mxGeometry y="52" width="160" height="8" as="geometry" />
        </mxCell>
        <mxCell id="Hh1ZqOh16C1T5onKGEZO-21" value="+ method(type): type" style="text;strokeColor=none;fillColor=none;align=left;verticalAlign=top;spacingLeft=4;spacingRight=4;overflow=hidden;rotatable=0;points=[[0,0.5],[1,0.5]];portConstraint=eastwest;" parent="Hh1ZqOh16C1T5onKGEZO-18" vertex="1">
          <mxGeometry y="60" width="160" height="26" as="geometry" />
        </mxCell>
        <mxCell id="Hh1ZqOh16C1T5onKGEZO-14" value="SHP" style="swimlane;fontStyle=1;align=center;verticalAlign=top;childLayout=stackLayout;horizontal=1;startSize=26;horizontalStack=0;resizeParent=1;resizeParentMax=0;resizeLast=0;collapsible=1;marginBottom=0;" parent="k98FI3-CN0EbQ0Xw41iG-1" vertex="1">
          <mxGeometry x="445" y="830" width="160" height="86" as="geometry" />
        </mxCell>
        <mxCell id="Hh1ZqOh16C1T5onKGEZO-15" value="+ field: type" style="text;strokeColor=none;fillColor=none;align=left;verticalAlign=top;spacingLeft=4;spacingRight=4;overflow=hidden;rotatable=0;points=[[0,0.5],[1,0.5]];portConstraint=eastwest;" parent="Hh1ZqOh16C1T5onKGEZO-14" vertex="1">
          <mxGeometry y="26" width="160" height="26" as="geometry" />
        </mxCell>
        <mxCell id="Hh1ZqOh16C1T5onKGEZO-16" value="" style="line;strokeWidth=1;fillColor=none;align=left;verticalAlign=middle;spacingTop=-1;spacingLeft=3;spacingRight=3;rotatable=0;labelPosition=right;points=[];portConstraint=eastwest;" parent="Hh1ZqOh16C1T5onKGEZO-14" vertex="1">
          <mxGeometry y="52" width="160" height="8" as="geometry" />
        </mxCell>
        <mxCell id="Hh1ZqOh16C1T5onKGEZO-17" value="+ method(type): type" style="text;strokeColor=none;fillColor=none;align=left;verticalAlign=top;spacingLeft=4;spacingRight=4;overflow=hidden;rotatable=0;points=[[0,0.5],[1,0.5]];portConstraint=eastwest;" parent="Hh1ZqOh16C1T5onKGEZO-14" vertex="1">
          <mxGeometry y="60" width="160" height="26" as="geometry" />
        </mxCell>
        <mxCell id="Hh1ZqOh16C1T5onKGEZO-6" value="Module" style="swimlane;fontStyle=1;align=center;verticalAlign=top;childLayout=stackLayout;horizontal=1;startSize=26;horizontalStack=0;resizeParent=1;resizeParentMax=0;resizeLast=0;collapsible=1;marginBottom=0;" parent="k98FI3-CN0EbQ0Xw41iG-1" vertex="1">
          <mxGeometry x="445" y="670" width="160" height="86" as="geometry" />
        </mxCell>
        <mxCell id="Hh1ZqOh16C1T5onKGEZO-7" value="+ field: type" style="text;strokeColor=none;fillColor=none;align=left;verticalAlign=top;spacingLeft=4;spacingRight=4;overflow=hidden;rotatable=0;points=[[0,0.5],[1,0.5]];portConstraint=eastwest;" parent="Hh1ZqOh16C1T5onKGEZO-6" vertex="1">
          <mxGeometry y="26" width="160" height="26" as="geometry" />
        </mxCell>
        <mxCell id="Hh1ZqOh16C1T5onKGEZO-8" value="" style="line;strokeWidth=1;fillColor=none;align=left;verticalAlign=middle;spacingTop=-1;spacingLeft=3;spacingRight=3;rotatable=0;labelPosition=right;points=[];portConstraint=eastwest;" parent="Hh1ZqOh16C1T5onKGEZO-6" vertex="1">
          <mxGeometry y="52" width="160" height="8" as="geometry" />
        </mxCell>
        <mxCell id="Hh1ZqOh16C1T5onKGEZO-9" value="+ method(type): type" style="text;strokeColor=none;fillColor=none;align=left;verticalAlign=top;spacingLeft=4;spacingRight=4;overflow=hidden;rotatable=0;points=[[0,0.5],[1,0.5]];portConstraint=eastwest;" parent="Hh1ZqOh16C1T5onKGEZO-6" vertex="1">
          <mxGeometry y="60" width="160" height="26" as="geometry" />
        </mxCell>
        <mxCell id="Hh1ZqOh16C1T5onKGEZO-0" value="Room" style="swimlane;fontStyle=1;align=center;verticalAlign=top;childLayout=stackLayout;horizontal=1;startSize=26;horizontalStack=0;resizeParent=1;resizeParentMax=0;resizeLast=0;collapsible=1;marginBottom=0;" parent="k98FI3-CN0EbQ0Xw41iG-1" vertex="1">
          <mxGeometry x="-10" y="350" width="280" height="170" as="geometry" />
        </mxCell>
        <mxCell id="Hh1ZqOh16C1T5onKGEZO-1" value="- roomId: int&#xa;- nWindows: int&#xa;- nLights: int&#xa;- nDoors: int&#xa;- roomTemp: int&#xa;- blockedWindowPresent: boolean" style="text;strokeColor=none;fillColor=none;align=left;verticalAlign=top;spacingLeft=4;spacingRight=4;overflow=hidden;rotatable=0;points=[[0,0.5],[1,0.5]];portConstraint=eastwest;" parent="Hh1ZqOh16C1T5onKGEZO-0" vertex="1">
          <mxGeometry y="26" width="280" height="84" as="geometry" />
        </mxCell>
        <mxCell id="Hh1ZqOh16C1T5onKGEZO-2" value="" style="line;strokeWidth=1;fillColor=none;align=left;verticalAlign=middle;spacingTop=-1;spacingLeft=3;spacingRight=3;rotatable=0;labelPosition=right;points=[];portConstraint=eastwest;" parent="Hh1ZqOh16C1T5onKGEZO-0" vertex="1">
          <mxGeometry y="110" width="280" height="40" as="geometry" />
        </mxCell>
        <mxCell id="WAo9bf8TWP8gmRhbdrpz-24" value="+ setBlockedWindowPresent(isPresent: boolean)" style="text;html=1;align=left;verticalAlign=middle;resizable=0;points=[];autosize=1;" parent="Hh1ZqOh16C1T5onKGEZO-0" vertex="1">
          <mxGeometry y="150" width="280" height="20" as="geometry" />
        </mxCell>
      </root>
    </mxGraphModel>
  </diagram>
  <diagram id="AuCY7fcBZ_13xBlB0Hx5" name="sequence">
    <mxGraphModel dx="786" dy="738" grid="1" gridSize="10" guides="1" tooltips="1" connect="1" arrows="1" fold="1" page="1" pageScale="1" pageWidth="850" pageHeight="1100" math="0" shadow="0">
      <root>
        <mxCell id="dc7-7ANzqNRgIsda0z-w-0" />
        <mxCell id="dc7-7ANzqNRgIsda0z-w-1" parent="dc7-7ANzqNRgIsda0z-w-0" />
      </root>
    </mxGraphModel>
  </diagram>
</mxfile>
